<svg width="536" height="198" viewBox="0 0 536 198" fill="none" xmlns="http://www.w3.org/2000/svg">
<path d="M0 93C0 42.1898 41.1898 1 92 1H404C406.761 1 409 3.23858 409 6V180C409 182.761 406.761 185 404 185H92C41.1898 185 0 143.81 0 93V93Z" fill="url(#paint0_angular_3_66)" fill-opacity="0.5"/>
<path d="M187 153C187 128.699 206.699 109 231 109H479C491.15 109 501 118.85 501 131V131C501 143.15 491.15 153 479 153H187V153Z" fill="#8D3636"/>
<path d="M400.651 42.6372C406.673 33.1701 420.052 32.0296 427.589 40.3409L494.121 113.709C503.573 124.133 496.992 140.872 482.971 142.068L363.286 152.27C349.265 153.465 339.945 138.081 347.497 126.208L400.651 42.6372Z" fill="#8D3636"/>
<path d="M285.233 47.0208C285.633 41.3937 291.576 37.9372 296.665 40.3713L320.273 51.6625C322.102 52.5371 324.194 52.6849 326.128 52.0761L351.461 44.0986C357.335 42.2486 363.009 47.4522 361.673 53.4645L356.415 77.1296C355.931 79.3066 356.378 81.5866 357.647 83.4199L371.293 103.123C374.621 107.928 371.84 114.564 366.081 115.561L338.726 120.294C336.838 120.621 335.129 121.614 333.912 123.094L316.274 144.532C312.56 149.046 305.417 148.183 302.885 142.914L292.505 121.312C291.539 119.302 289.778 117.786 287.647 117.131L264.476 110.002C258.589 108.191 256.871 100.686 261.384 96.4945L280.842 78.4179C282.327 77.0382 283.233 75.1462 283.377 73.1242L285.233 47.0208Z" fill="#8D3636"/>
<path d="M226.264 40.2799C230.598 33.5787 240.402 33.5787 244.736 40.2799L289.04 108.776C293.774 116.095 288.52 125.75 279.804 125.75H191.196C182.48 125.75 177.226 116.095 181.96 108.776L226.264 40.2799Z" fill="#8D3636"/>
<rect x="161" y="22" width="51" height="131" rx="25.5" fill="#8D3636"/>
<path fill-rule="evenodd" clip-rule="evenodd" d="M92.5 -1.52588e-05C41.4137 -1.52588e-05 0 41.4136 0 92.5C0 143.586 41.4137 185 92.5 185C143.586 185 185 143.586 185 92.5C185 41.4136 143.586 -1.52588e-05 92.5 -1.52588e-05ZM51 118C64.8071 118 76 106.807 76 93C76 79.1929 64.8071 68 51 68C37.1929 68 26 79.1929 26 93C26 106.807 37.1929 118 51 118Z" fill="#8D3636"/>
<path d="M83.1023 118.045V131H78.8551V109.182H82.9318V112.733H83.2017C83.7036 111.578 84.4896 110.65 85.5597 109.949C86.6392 109.248 87.9981 108.898 89.6364 108.898C91.1231 108.898 92.4252 109.21 93.5426 109.835C94.66 110.451 95.5265 111.369 96.142 112.591C96.7576 113.812 97.0653 115.323 97.0653 117.122V131H92.8182V117.634C92.8182 116.052 92.4063 114.816 91.5824 113.926C90.7585 113.027 89.6269 112.577 88.1875 112.577C87.2027 112.577 86.3267 112.79 85.5597 113.216C84.8021 113.642 84.2008 114.267 83.7557 115.091C83.3201 115.905 83.1023 116.89 83.1023 118.045ZM111.909 139.636C110.176 139.636 108.685 139.409 107.435 138.955C106.194 138.5 105.181 137.899 104.395 137.151C103.609 136.402 103.022 135.583 102.634 134.693L106.284 133.188C106.54 133.604 106.881 134.045 107.307 134.509C107.742 134.982 108.33 135.384 109.068 135.716C109.816 136.047 110.777 136.213 111.952 136.213C113.562 136.213 114.892 135.82 115.943 135.034C116.994 134.258 117.52 133.017 117.52 131.312V127.023H117.25C116.994 127.487 116.625 128.003 116.142 128.571C115.669 129.139 115.015 129.632 114.182 130.048C113.348 130.465 112.264 130.673 110.929 130.673C109.205 130.673 107.652 130.271 106.27 129.466C104.897 128.652 103.808 127.454 103.003 125.872C102.207 124.281 101.81 122.326 101.81 120.006C101.81 117.686 102.203 115.697 102.989 114.04C103.784 112.383 104.873 111.114 106.256 110.233C107.638 109.343 109.205 108.898 110.957 108.898C112.312 108.898 113.405 109.125 114.239 109.58C115.072 110.025 115.721 110.545 116.185 111.142C116.658 111.739 117.023 112.264 117.278 112.719H117.591V109.182H121.753V131.483C121.753 133.358 121.317 134.897 120.446 136.099C119.575 137.302 118.396 138.192 116.909 138.77C115.432 139.348 113.765 139.636 111.909 139.636ZM111.866 127.151C113.088 127.151 114.12 126.866 114.963 126.298C115.815 125.721 116.459 124.897 116.895 123.827C117.34 122.747 117.562 121.455 117.562 119.949C117.562 118.481 117.345 117.188 116.909 116.071C116.473 114.954 115.834 114.082 114.991 113.457C114.149 112.823 113.107 112.506 111.866 112.506C110.588 112.506 109.523 112.837 108.67 113.5C107.818 114.153 107.174 115.044 106.739 116.17C106.313 117.297 106.099 118.557 106.099 119.949C106.099 121.379 106.317 122.634 106.753 123.713C107.188 124.793 107.832 125.635 108.685 126.241C109.546 126.848 110.607 127.151 111.866 127.151ZM136.852 131.44C134.703 131.44 132.851 130.981 131.298 130.062C129.755 129.134 128.562 127.832 127.719 126.156C126.885 124.471 126.469 122.496 126.469 120.233C126.469 117.998 126.885 116.028 127.719 114.324C128.562 112.619 129.736 111.289 131.241 110.332C132.757 109.376 134.527 108.898 136.554 108.898C137.785 108.898 138.978 109.101 140.134 109.509C141.289 109.916 142.326 110.555 143.244 111.426C144.163 112.297 144.887 113.429 145.418 114.821C145.948 116.204 146.213 117.884 146.213 119.864V121.369H128.869V118.188H142.051C142.051 117.07 141.824 116.08 141.369 115.219C140.915 114.348 140.276 113.661 139.452 113.159C138.637 112.657 137.681 112.406 136.582 112.406C135.389 112.406 134.348 112.7 133.457 113.287C132.577 113.865 131.895 114.622 131.412 115.56C130.938 116.488 130.702 117.496 130.702 118.585V121.071C130.702 122.529 130.957 123.77 131.469 124.793C131.99 125.815 132.714 126.597 133.642 127.136C134.57 127.667 135.654 127.932 136.895 127.932C137.7 127.932 138.434 127.818 139.097 127.591C139.759 127.354 140.332 127.004 140.815 126.54C141.298 126.076 141.668 125.503 141.923 124.821L145.943 125.545C145.621 126.729 145.044 127.766 144.21 128.656C143.386 129.537 142.349 130.223 141.099 130.716C139.859 131.199 138.443 131.44 136.852 131.44ZM155.173 101.909V131H150.925V101.909H155.173ZM170.29 131.44C168.14 131.44 166.289 130.981 164.736 130.062C163.192 129.134 161.999 127.832 161.156 126.156C160.323 124.471 159.906 122.496 159.906 120.233C159.906 117.998 160.323 116.028 161.156 114.324C161.999 112.619 163.173 111.289 164.679 110.332C166.194 109.376 167.965 108.898 169.991 108.898C171.223 108.898 172.416 109.101 173.571 109.509C174.726 109.916 175.763 110.555 176.682 111.426C177.6 112.297 178.325 113.429 178.855 114.821C179.385 116.204 179.651 117.884 179.651 119.864V121.369H162.307V118.188H175.489C175.489 117.07 175.261 116.08 174.807 115.219C174.352 114.348 173.713 113.661 172.889 113.159C172.075 112.657 171.118 112.406 170.02 112.406C168.827 112.406 167.785 112.7 166.895 113.287C166.014 113.865 165.332 114.622 164.849 115.56C164.376 116.488 164.139 117.496 164.139 118.585V121.071C164.139 122.529 164.395 123.77 164.906 124.793C165.427 125.815 166.152 126.597 167.08 127.136C168.008 127.667 169.092 127.932 170.332 127.932C171.137 127.932 171.871 127.818 172.534 127.591C173.197 127.354 173.77 127.004 174.253 126.54C174.736 126.076 175.105 125.503 175.361 124.821L179.381 125.545C179.059 126.729 178.481 127.766 177.648 128.656C176.824 129.537 175.787 130.223 174.537 130.716C173.296 131.199 171.881 131.44 170.29 131.44ZM184.363 131V109.182H188.44V112.733H188.71C189.164 111.53 189.907 110.593 190.94 109.92C191.972 109.239 193.208 108.898 194.647 108.898C196.105 108.898 197.327 109.239 198.312 109.92C199.306 110.602 200.04 111.54 200.513 112.733H200.741C201.262 111.568 202.09 110.64 203.227 109.949C204.363 109.248 205.717 108.898 207.289 108.898C209.268 108.898 210.883 109.518 212.133 110.759C213.392 111.999 214.022 113.869 214.022 116.369V131H209.775V116.767C209.775 115.29 209.372 114.22 208.567 113.557C207.763 112.894 206.801 112.562 205.684 112.562C204.301 112.562 203.227 112.989 202.46 113.841C201.692 114.684 201.309 115.768 201.309 117.094V131H197.076V116.497C197.076 115.313 196.707 114.362 195.968 113.642C195.229 112.922 194.268 112.562 193.085 112.562C192.28 112.562 191.536 112.776 190.854 113.202C190.182 113.618 189.638 114.201 189.221 114.949C188.814 115.697 188.61 116.563 188.61 117.548V131H184.363ZM226.064 131.483C224.681 131.483 223.431 131.227 222.314 130.716C221.196 130.195 220.311 129.442 219.658 128.457C219.014 127.473 218.692 126.265 218.692 124.835C218.692 123.604 218.929 122.591 219.402 121.795C219.875 121 220.515 120.37 221.32 119.906C222.125 119.442 223.024 119.092 224.018 118.855C225.013 118.618 226.026 118.438 227.058 118.315C228.365 118.164 229.426 118.041 230.24 117.946C231.054 117.842 231.646 117.676 232.016 117.449C232.385 117.222 232.57 116.852 232.57 116.341V116.241C232.57 115.001 232.219 114.04 231.518 113.358C230.827 112.676 229.795 112.335 228.422 112.335C226.992 112.335 225.865 112.652 225.041 113.287C224.227 113.912 223.663 114.608 223.351 115.375L219.359 114.466C219.833 113.14 220.524 112.07 221.433 111.256C222.352 110.432 223.408 109.835 224.601 109.466C225.794 109.087 227.049 108.898 228.365 108.898C229.236 108.898 230.16 109.002 231.135 109.21C232.12 109.409 233.038 109.778 233.891 110.318C234.752 110.858 235.458 111.63 236.007 112.634C236.556 113.628 236.831 114.92 236.831 116.511V131H232.683V128.017H232.513C232.238 128.566 231.826 129.106 231.277 129.636C230.728 130.167 230.022 130.607 229.161 130.957C228.299 131.308 227.267 131.483 226.064 131.483ZM226.987 128.074C228.161 128.074 229.165 127.842 229.999 127.378C230.841 126.914 231.481 126.308 231.916 125.56C232.361 124.802 232.584 123.992 232.584 123.131V120.318C232.432 120.47 232.139 120.612 231.703 120.744C231.277 120.867 230.789 120.976 230.24 121.071C229.691 121.156 229.156 121.237 228.635 121.312C228.114 121.379 227.679 121.436 227.328 121.483C226.504 121.587 225.751 121.762 225.07 122.009C224.397 122.255 223.857 122.61 223.45 123.074C223.053 123.528 222.854 124.134 222.854 124.892C222.854 125.943 223.242 126.739 224.018 127.278C224.795 127.809 225.785 128.074 226.987 128.074ZM242.488 131V109.182H246.593V112.648H246.82C247.218 111.473 247.919 110.55 248.923 109.878C249.936 109.196 251.082 108.855 252.36 108.855C252.625 108.855 252.938 108.865 253.298 108.884C253.667 108.902 253.956 108.926 254.164 108.955V113.017C253.994 112.97 253.691 112.918 253.255 112.861C252.819 112.795 252.384 112.761 251.948 112.761C250.944 112.761 250.049 112.974 249.263 113.401C248.487 113.817 247.871 114.4 247.417 115.148C246.962 115.886 246.735 116.729 246.735 117.676V131H242.488ZM269.406 116.866V120.545H256.508V116.866H269.406ZM275.066 139.182V109.182H279.214V112.719H279.569C279.815 112.264 280.17 111.739 280.634 111.142C281.098 110.545 281.742 110.025 282.566 109.58C283.39 109.125 284.479 108.898 285.833 108.898C287.594 108.898 289.166 109.343 290.549 110.233C291.932 111.123 293.016 112.406 293.802 114.082C294.597 115.759 294.995 117.776 294.995 120.134C294.995 122.491 294.602 124.513 293.816 126.199C293.03 127.875 291.951 129.168 290.577 130.077C289.204 130.976 287.637 131.426 285.876 131.426C284.55 131.426 283.466 131.204 282.623 130.759C281.79 130.313 281.136 129.793 280.663 129.196C280.189 128.599 279.825 128.069 279.569 127.605H279.313V139.182H275.066ZM279.228 120.091C279.228 121.625 279.451 122.97 279.896 124.125C280.341 125.28 280.985 126.185 281.827 126.838C282.67 127.482 283.702 127.804 284.924 127.804C286.193 127.804 287.254 127.468 288.106 126.795C288.958 126.114 289.602 125.19 290.038 124.026C290.483 122.861 290.705 121.549 290.705 120.091C290.705 118.652 290.487 117.359 290.052 116.213C289.626 115.067 288.982 114.163 288.12 113.5C287.268 112.837 286.202 112.506 284.924 112.506C283.693 112.506 282.651 112.823 281.799 113.457C280.956 114.092 280.317 114.977 279.881 116.114C279.446 117.25 279.228 118.576 279.228 120.091ZM306.103 131.483C304.72 131.483 303.47 131.227 302.353 130.716C301.236 130.195 300.35 129.442 299.697 128.457C299.053 127.473 298.731 126.265 298.731 124.835C298.731 123.604 298.968 122.591 299.441 121.795C299.915 121 300.554 120.37 301.359 119.906C302.164 119.442 303.063 119.092 304.058 118.855C305.052 118.618 306.065 118.438 307.097 118.315C308.404 118.164 309.465 118.041 310.279 117.946C311.094 117.842 311.685 117.676 312.055 117.449C312.424 117.222 312.609 116.852 312.609 116.341V116.241C312.609 115.001 312.258 114.04 311.558 113.358C310.866 112.676 309.834 112.335 308.461 112.335C307.031 112.335 305.904 112.652 305.08 113.287C304.266 113.912 303.702 114.608 303.39 115.375L299.398 114.466C299.872 113.14 300.563 112.07 301.472 111.256C302.391 110.432 303.447 109.835 304.64 109.466C305.833 109.087 307.088 108.898 308.404 108.898C309.275 108.898 310.199 109.002 311.174 109.21C312.159 109.409 313.077 109.778 313.93 110.318C314.791 110.858 315.497 111.63 316.046 112.634C316.595 113.628 316.87 114.92 316.87 116.511V131H312.722V128.017H312.552C312.277 128.566 311.865 129.106 311.316 129.636C310.767 130.167 310.061 130.607 309.2 130.957C308.338 131.308 307.306 131.483 306.103 131.483ZM307.026 128.074C308.201 128.074 309.204 127.842 310.038 127.378C310.88 126.914 311.52 126.308 311.955 125.56C312.4 124.802 312.623 123.992 312.623 123.131V120.318C312.471 120.47 312.178 120.612 311.742 120.744C311.316 120.867 310.828 120.976 310.279 121.071C309.73 121.156 309.195 121.237 308.674 121.312C308.153 121.379 307.718 121.436 307.367 121.483C306.543 121.587 305.79 121.762 305.109 122.009C304.436 122.255 303.897 122.61 303.489 123.074C303.092 123.528 302.893 124.134 302.893 124.892C302.893 125.943 303.281 126.739 304.058 127.278C304.834 127.809 305.824 128.074 307.026 128.074ZM332.911 109.182V112.591H320.581V109.182H332.911ZM323.962 131V106.653C323.962 105.29 324.26 104.158 324.857 103.259C325.453 102.349 326.244 101.672 327.229 101.227C328.214 100.773 329.284 100.545 330.439 100.545C331.291 100.545 332.02 100.616 332.626 100.759C333.232 100.891 333.682 101.014 333.976 101.128L332.982 104.565C332.783 104.509 332.527 104.442 332.214 104.366C331.902 104.281 331.523 104.239 331.078 104.239C330.046 104.239 329.307 104.494 328.862 105.006C328.427 105.517 328.209 106.256 328.209 107.222V131H323.962ZM347.676 109.182V112.591H335.347V109.182H347.676ZM338.727 131V106.653C338.727 105.29 339.026 104.158 339.622 103.259C340.219 102.349 341.009 101.672 341.994 101.227C342.979 100.773 344.049 100.545 345.205 100.545C346.057 100.545 346.786 100.616 347.392 100.759C347.998 100.891 348.448 101.014 348.741 101.128L347.747 104.565C347.548 104.509 347.293 104.442 346.98 104.366C346.668 104.281 346.289 104.239 345.844 104.239C344.812 104.239 344.073 104.494 343.628 105.006C343.192 105.517 342.974 106.256 342.974 107.222V131H338.727ZM356.788 131L350.368 109.182H354.757L359.033 125.205H359.246L363.536 109.182H367.925L372.186 125.134H372.399L376.646 109.182H381.036L374.629 131H370.297L365.865 115.247H365.538L361.107 131H356.788ZM395.137 131.483C392.893 131.473 390.975 130.882 389.384 129.707C387.793 128.533 386.576 126.824 385.734 124.58C384.891 122.335 384.469 119.632 384.469 116.469C384.469 113.315 384.891 110.621 385.734 108.386C386.586 106.152 387.808 104.447 389.398 103.273C390.999 102.098 392.912 101.511 395.137 101.511C397.362 101.511 399.271 102.103 400.862 103.287C402.452 104.461 403.669 106.166 404.512 108.401C405.364 110.626 405.79 113.315 405.79 116.469C405.79 119.641 405.369 122.349 404.526 124.594C403.683 126.829 402.467 128.538 400.876 129.722C399.285 130.896 397.372 131.483 395.137 131.483ZM395.137 127.69C397.107 127.69 398.646 126.729 399.754 124.807C400.871 122.884 401.43 120.105 401.43 116.469C401.43 114.054 401.174 112.013 400.663 110.347C400.161 108.67 399.436 107.402 398.489 106.54C397.552 105.669 396.434 105.233 395.137 105.233C393.177 105.233 391.638 106.199 390.521 108.131C389.403 110.062 388.84 112.842 388.83 116.469C388.83 118.893 389.081 120.943 389.583 122.619C390.094 124.286 390.819 125.55 391.756 126.412C392.694 127.264 393.821 127.69 395.137 127.69ZM410.886 131V109.182H414.991V112.648H415.219C415.616 111.473 416.317 110.55 417.321 109.878C418.334 109.196 419.48 108.855 420.759 108.855C421.024 108.855 421.336 108.865 421.696 108.884C422.065 108.902 422.354 108.926 422.562 108.955V113.017C422.392 112.97 422.089 112.918 421.653 112.861C421.218 112.795 420.782 112.761 420.347 112.761C419.343 112.761 418.448 112.974 417.662 113.401C416.885 113.817 416.27 114.4 415.815 115.148C415.361 115.886 415.134 116.729 415.134 117.676V131H410.886ZM433.624 131.426C431.863 131.426 430.291 130.976 428.908 130.077C427.535 129.168 426.456 127.875 425.67 126.199C424.893 124.513 424.505 122.491 424.505 120.134C424.505 117.776 424.898 115.759 425.684 114.082C426.479 112.406 427.568 111.123 428.951 110.233C430.334 109.343 431.901 108.898 433.653 108.898C435.007 108.898 436.096 109.125 436.92 109.58C437.753 110.025 438.397 110.545 438.852 111.142C439.316 111.739 439.675 112.264 439.931 112.719H440.187V101.909H444.434V131H440.286V127.605H439.931C439.675 128.069 439.306 128.599 438.823 129.196C438.35 129.793 437.696 130.313 436.863 130.759C436.03 131.204 434.95 131.426 433.624 131.426ZM434.562 127.804C435.783 127.804 436.816 127.482 437.658 126.838C438.511 126.185 439.155 125.28 439.59 124.125C440.035 122.97 440.258 121.625 440.258 120.091C440.258 118.576 440.04 117.25 439.604 116.114C439.169 114.977 438.53 114.092 437.687 113.457C436.844 112.823 435.802 112.506 434.562 112.506C433.283 112.506 432.218 112.837 431.366 113.5C430.513 114.163 429.87 115.067 429.434 116.213C429.008 117.359 428.795 118.652 428.795 120.091C428.795 121.549 429.013 122.861 429.448 124.026C429.884 125.19 430.528 126.114 431.38 126.795C432.242 127.468 433.302 127.804 434.562 127.804ZM450.041 131V128.088L461.859 113.074V112.875H450.425V109.182H467.158V112.278L455.794 127.108V127.307H467.555V131H450.041Z" fill="#EFFFFF"/>
<defs>
<radialGradient id="paint0_angular_3_66" cx="0" cy="0" r="1" gradientUnits="userSpaceOnUse" gradientTransform="translate(212.255 222) rotate(51.6243) scale(197.715 514.246)">
<stop offset="0.53099" stop-color="#F5F5F5" stop-opacity="0"/>
<stop offset="0.893435" stop-color="#8D3636"/>
</radialGradient>
</defs>
</svg>
